<?xml version="1.0" encoding="UTF-8"?>
<!DOCTYPE svg PUBLIC "-//W3C//DTD SVG 1.1//EN" "http://www.w3.org/Graphics/SVG/1.1/DTD/svg11.dtd">
<!-- Creator: CorelDRAW -->
<svg xmlns="http://www.w3.org/2000/svg" xml:space="preserve" width="6.72in" height="6.72in" style="shape-rendering:geometricPrecision; text-rendering:geometricPrecision; image-rendering:optimizeQuality; fill-rule:evenodd; clip-rule:evenodd"
viewBox="0 0 6.72 6.72"
 xmlns:xlink="http://www.w3.org/1999/xlink">
 <defs>
  <style type="text/css">
   <![CDATA[
    .fil2 {fill:none}
    .fil0 {fill:url(#id0);fill-rule:nonzero}
    .fil1 {fill:url(#id1);fill-rule:nonzero}
   ]]>
  </style>
  <linearGradient id="id0" gradientUnits="userSpaceOnUse" x1="0.8" y1="4.08695" x2="5.92013" y2="4.08695">
   <stop offset="0" style="stop-color:#321B71"/>
   <stop offset="1" style="stop-color:#3093B0"/>
  </linearGradient>
  <linearGradient id="id1" gradientUnits="userSpaceOnUse" xlink:href="#id0" x1="0.788988" y1="1.99905" x2="5.93119" y2="1.99905">
  </linearGradient>
 </defs>
 <g id="Layer_x0020_1">
  <metadata id="CorelCorpID_0Corel-Layer"/>
  <path class="fil0" d="M5.92 2.733l0 2.72726c0,0.0441811 -0.0358189,0.08 -0.08,0.08l-4.96 0c-0.0441811,0 -0.08,-0.0358189 -0.08,-0.08l0 -2.74662c0,-0.0441811 0.0358189,-0.08 0.08,-0.08 0.016622,0 0.032063,0.00507087 0.0448583,0.013752l2.44323 1.41537 2.43219 -1.39948 -0.000169291 -0.000295276c0.0382913,-0.0220315 0.0872047,-0.00885039 0.109236,0.0294409 0.00736614,0.0128031 0.0107913,0.0267953 0.0106614,0.0405709zm-0.16 2.64726l0 -2.51 -2.34589 1.34982c-0.024752,0.0175394 -0.0584488,0.0201732 -0.0864134,0.00397244l9.44882e-005 -0.000165354 -2.36779 -1.37167 0 2.52804 4.8 0z"/>
  <path class="fil1" d="M0.839689 2.64489c-0.0379685,0.0222598 -0.0507008,0.0710945 -0.0284409,0.109063 0.0222598,0.0379685 0.0710945,0.0507008 0.109063,0.0284409l2.43161 -1.43003 2.44746 1.44871c0.0379685,0.022437 0.0869409,0.00984252 0.109378,-0.028126 0.022437,-0.0379685 0.00984252,-0.0869409 -0.028126,-0.109378l-2.48343 -1.47c-0.0247756,-0.0168228 -0.0580197,-0.0189843 -0.0855472,-0.00279528l0.000153543 0.000259843 -2.47211 1.45385z"/>
 </g>
 <rect class="fil2" width="6.72" height="6.72"/>
</svg>
