<?xml version="1.0" encoding="utf-8"?>
<!-- Generator: Adobe Illustrator 23.0.3, SVG Export Plug-In . SVG Version: 6.00 Build 0)  -->
<svg version="1.1" id="Layer_1" xmlns="http://www.w3.org/2000/svg" xmlns:xlink="http://www.w3.org/1999/xlink" x="0px" y="0px"
	 viewBox="0 0 24 24" style="enable-background:new 0 0 24 24;" xml:space="preserve">
<style type="text/css">
	.st0{fill:url(#SVGID_1_);}
	.st1{fill:url(#SVGID_2_);}
	.st2{fill:url(#SVGID_3_);}
	.st3{fill:url(#SVGID_4_);}
	.st4{fill:url(#SVGID_5_);}
	.st5{fill:url(#SVGID_6_);}
	.st6{fill:url(#SVGID_7_);}
	.st7{fill:url(#SVGID_8_);}
	.st8{fill:url(#SVGID_9_);}
	.st9{fill:url(#SVGID_10_);}
	.st10{fill:url(#SVGID_11_);}
	.st11{fill:url(#SVGID_12_);}
	.st12{fill:url(#SVGID_13_);}
	.st13{fill:url(#SVGID_14_);}
	.st14{fill:url(#SVGID_15_);}
	.st15{fill:url(#SVGID_16_);}
	.st16{fill:url(#SVGID_17_);}
	.st17{fill:url(#SVGID_18_);}
	.st18{fill:url(#SVGID_19_);}
	.st19{fill:url(#SVGID_20_);}
	.st20{fill:url(#SVGID_21_);}
	.st21{fill:url(#SVGID_22_);}
	.st22{fill:url(#SVGID_23_);}
	.st23{fill:url(#SVGID_24_);}
	.st24{fill:url(#SVGID_25_);}
	.st25{fill:url(#SVGID_26_);}
	.st26{fill:url(#SVGID_27_);}
	.st27{fill:url(#SVGID_28_);}
	.st28{fill:url(#SVGID_29_);}
	.st29{fill:url(#SVGID_30_);}
	.st30{fill:url(#SVGID_31_);}
	.st31{fill:url(#SVGID_32_);}
	.st32{fill:url(#SVGID_33_);}
	.st33{fill:url(#SVGID_34_);}
	.st34{fill:url(#Shape_2_);}
	.st35{fill:url(#SVGID_35_);}
	.st36{fill:url(#SVGID_36_);}
	.st37{fill:url(#SVGID_37_);}
	.st38{fill:url(#SVGID_38_);}
	.st39{fill:url(#SVGID_39_);}
	.st40{fill:url(#SVGID_40_);}
	.st41{fill:url(#SVGID_41_);}
	.st42{fill:url(#SVGID_42_);}
	.st43{fill:url(#SVGID_43_);}
	.st44{fill:url(#SVGID_44_);}
	.st45{fill:url(#SVGID_45_);}
	.st46{fill:url(#SVGID_46_);}
	.st47{fill:url(#SVGID_47_);}
	.st48{fill:url(#SVGID_48_);}
	.st49{fill:url(#SVGID_49_);}
</style>
<linearGradient id="SVGID_1_" gradientUnits="userSpaceOnUse" x1="2.0648" y1="12" x2="22.5278" y2="12">
	<stop  offset="0" style="stop-color:#2183BF"/>
	<stop  offset="1" style="stop-color:#19086D"/>
</linearGradient>
<path class="st0" d="M22.5,10.6c0,0.2-0.2,0.4-0.4,0.4s-0.4-0.2-0.4-0.4c0-4.4-3.6-8-8-8c-0.2,0-0.4-0.2-0.4-0.4s0.2-0.4,0.4-0.4
	C18.6,1.8,22.5,5.7,22.5,10.6z M13.7,4.2c-0.2,0-0.4,0.2-0.4,0.4c0,0.2,0.2,0.4,0.4,0.4c3.1,0,5.6,2.5,5.6,5.6
	c0,0.2,0.2,0.4,0.4,0.4s0.4-0.2,0.4-0.4C20.1,7.1,17.2,4.2,13.7,4.2z M16.9,10.6c0,0.2,0.2,0.4,0.4,0.4s0.4-0.2,0.4-0.4
	c0-2.2-1.8-4-4-4c-0.2,0-0.4,0.2-0.4,0.4s0.2,0.4,0.4,0.4C15.5,7.4,16.9,8.8,16.9,10.6z M13.3,9.4c0,0.2,0.2,0.4,0.4,0.4
	c0.4,0,0.8,0.4,0.8,0.8c0,0.2,0.2,0.4,0.4,0.4s0.4-0.2,0.4-0.4c0-0.9-0.7-1.6-1.6-1.6C13.5,9,13.3,9.2,13.3,9.4z M9.3,14.3
	c-0.2,0-0.4,0.2-0.4,0.4s0.2,0.4,0.4,0.4s0.4-0.2,0.4-0.4S9.5,14.3,9.3,14.3z M16.3,15.1c-0.5-0.5-1.2-0.5-1.7,0l-1.3,1.3
	c-0.2,0.2-0.7,0.3-1,0.1c-0.5-0.3-0.9-0.6-1.3-1c-0.2-0.1-0.4-0.1-0.6,0.1c-0.1,0.2-0.1,0.4,0.1,0.6c0.4,0.4,0.9,0.7,1.4,1
	c0.6,0.4,1.5,0.3,2-0.2l1.3-1.3c0.2-0.2,0.4-0.2,0.6,0l3.1,3.1c0.2,0.2,0.2,0.4,0,0.6l-1.2,1.2c-0.9,0.9-2.4,1.2-3.6,0.6
	c-6.1-2.8-9.3-7.5-10.9-10.9C2.6,9,2.9,7.6,3.8,6.6L5,5.5c0.2-0.2,0.4-0.2,0.6,0l3.1,3.1c0.2,0.2,0.2,0.4,0,0.6l-1.3,1.3
	c-0.5,0.5-0.6,1.4-0.2,2c0.2,0.4,0.5,0.7,0.7,1c0.1,0.2,0.4,0.2,0.6,0.1c0.2-0.1,0.2-0.4,0.1-0.6c-0.2-0.3-0.5-0.6-0.7-1
	c-0.2-0.3-0.2-0.8,0.1-1l1.3-1.3c0.5-0.5,0.5-1.2,0-1.7L6.1,4.9c-0.5-0.5-1.2-0.5-1.7,0L3.2,6.1c-1.2,1.2-1.5,3-0.8,4.5
	c2.3,5,6.2,9,11.3,11.3c1.5,0.7,3.3,0.4,4.5-0.8l1.2-1.2c0.5-0.5,0.5-1.2,0-1.7L16.3,15.1z"/>
</svg>
